<?xml version="1.0" encoding="utf-8" standalone="no"?>
<!DOCTYPE svg PUBLIC "-//W3C//DTD SVG 1.1//EN"
  "http://www.w3.org/Graphics/SVG/1.1/DTD/svg11.dtd">
<!-- Created with matplotlib (https://matplotlib.org/) -->
<svg height="432pt" version="1.1" viewBox="0 0 1080 432" width="1080pt" xmlns="http://www.w3.org/2000/svg" xmlns:xlink="http://www.w3.org/1999/xlink">
 <defs>
  <style type="text/css">
*{stroke-linecap:butt;stroke-linejoin:round;}
  </style>
 </defs>
 <g id="figure_1">
  <g id="patch_1">
   <path d="M 0 432 
L 1080 432 
L 1080 0 
L 0 0 
z
" style="fill:#ffffff;"/>
  </g>
  <g id="axes_1">
   <g id="patch_2">
    <path d="M 135 378 
L 972 378 
L 972 51.84 
L 135 51.84 
z
" style="fill:#ffffff;"/>
   </g>
   <g id="PolyCollection_1">
    <path clip-path="url(#pe4b1b8d34d)" d="M 173.045455 246.767318 
L 173.045455 269.83285 
L 173.045455 246.767318 
L 173.045455 246.767318 
z
" style="fill-opacity:0.2;stroke:#000000;stroke-opacity:0.2;"/>
    <path clip-path="url(#pe4b1b8d34d)" d="M 183.123721 280.093879 
L 183.123721 298.522824 
L 188.162854 271.802096 
L 188.162854 239.968986 
L 188.162854 239.968986 
L 183.123721 280.093879 
z
" style="fill-opacity:0.2;stroke:#000000;stroke-opacity:0.2;"/>
    <path clip-path="url(#pe4b1b8d34d)" d="M 200.760686 89.957508 
L 200.760686 262.206888 
L 203.280253 235.142765 
L 208.319386 233.303737 
L 208.319386 66.665455 
L 208.319386 66.665455 
L 203.280253 120.314966 
L 200.760686 89.957508 
z
" style="fill-opacity:0.2;stroke:#000000;stroke-opacity:0.2;"/>
    <path clip-path="url(#pe4b1b8d34d)" d="M 354.454244 253.550684 
L 354.454244 267.856713 
L 356.973811 239.811281 
L 359.493377 272.68294 
L 367.052077 279.443988 
L 369.571644 286.766093 
L 372.09121 279.431237 
L 374.610777 280.985098 
L 377.130343 255.301342 
L 379.64991 281.700223 
L 384.689043 289.821942 
L 387.208609 279.910825 
L 389.728176 283.384132 
L 392.247742 266.032784 
L 392.247742 239.753968 
L 392.247742 239.753968 
L 389.728176 233.389625 
L 387.208609 231.695403 
L 384.689043 263.768318 
L 379.64991 273.666731 
L 377.130343 248.797718 
L 374.610777 237.789285 
L 372.09121 264.266676 
L 369.571644 235.067762 
L 367.052077 258.102148 
L 359.493377 251.095558 
L 356.973811 226.262836 
L 354.454244 253.550684 
z
" style="fill-opacity:0.2;stroke:#000000;stroke-opacity:0.2;"/>
    <path clip-path="url(#pe4b1b8d34d)" d="M 407.365141 240.869795 
L 407.365141 267.2689 
L 407.365141 240.869795 
L 407.365141 240.869795 
z
" style="fill-opacity:0.2;stroke:#000000;stroke-opacity:0.2;"/>
    <path clip-path="url(#pe4b1b8d34d)" d="M 460.276039 141.909897 
L 460.276039 265.208451 
L 462.795605 274.974095 
L 465.315172 287.247286 
L 467.834738 269.490628 
L 467.834738 244.17621 
L 467.834738 244.17621 
L 465.315172 238.851006 
L 462.795605 251.63374 
L 460.276039 141.909897 
z
" style="fill-opacity:0.2;stroke:#000000;stroke-opacity:0.2;"/>
    <path clip-path="url(#pe4b1b8d34d)" d="M 480.432571 250.804626 
L 480.432571 281.020352 
L 482.952137 280.10751 
L 485.471704 278.855138 
L 487.99127 264.083189 
L 498.069536 265.358789 
L 498.069536 258.068586 
L 498.069536 258.068586 
L 487.99127 158.423655 
L 485.471704 237.49895 
L 482.952137 246.817672 
L 480.432571 250.804626 
z
" style="fill-opacity:0.2;stroke:#000000;stroke-opacity:0.2;"/>
    <path clip-path="url(#pe4b1b8d34d)" d="M 533.343468 264.592927 
L 533.343468 279.400864 
L 535.863034 283.463578 
L 535.863034 230.597898 
L 535.863034 230.597898 
L 533.343468 264.592927 
z
" style="fill-opacity:0.2;stroke:#000000;stroke-opacity:0.2;"/>
    <path clip-path="url(#pe4b1b8d34d)" d="M 548.460867 247.746461 
L 548.460867 263.261779 
L 556.019567 275.762441 
L 591.293498 285.548401 
L 593.813064 268.60617 
L 593.813064 255.897708 
L 593.813064 255.897708 
L 591.293498 254.577715 
L 556.019567 258.295796 
L 548.460867 247.746461 
z
" style="fill-opacity:0.2;stroke:#000000;stroke-opacity:0.2;"/>
    <path clip-path="url(#pe4b1b8d34d)" d="M 613.969597 242.341559 
L 613.969597 270.239726 
L 613.969597 242.341559 
L 613.969597 242.341559 
z
" style="fill-opacity:0.2;stroke:#000000;stroke-opacity:0.2;"/>
    <path clip-path="url(#pe4b1b8d34d)" d="M 629.086996 261.543773 
L 629.086996 275.314945 
L 629.086996 261.543773 
L 629.086996 261.543773 
z
" style="fill-opacity:0.2;stroke:#000000;stroke-opacity:0.2;"/>
    <path clip-path="url(#pe4b1b8d34d)" d="M 646.723961 284.30575 
L 646.723961 285.826561 
L 646.723961 284.30575 
L 646.723961 284.30575 
z
" style="fill-opacity:0.2;stroke:#000000;stroke-opacity:0.2;"/>
    <path clip-path="url(#pe4b1b8d34d)" d="M 659.321794 261.114839 
L 659.321794 284.50455 
L 661.841361 273.379577 
L 664.360927 278.624431 
L 666.880494 274.40051 
L 669.40006 270.597245 
L 671.919627 277.135687 
L 674.439193 269.443114 
L 674.439193 267.70391 
L 674.439193 267.70391 
L 671.919627 268.777523 
L 669.40006 263.152358 
L 666.880494 271.005554 
L 664.360927 260.235245 
L 661.841361 263.385977 
L 659.321794 261.114839 
z
" style="fill-opacity:0.2;stroke:#000000;stroke-opacity:0.2;"/>
    <path clip-path="url(#pe4b1b8d34d)" d="M 684.517459 259.298167 
L 684.517459 277.309941 
L 687.037026 280.649178 
L 687.037026 262.787857 
L 687.037026 262.787857 
L 684.517459 259.298167 
z
" style="fill-opacity:0.2;stroke:#000000;stroke-opacity:0.2;"/>
    <path clip-path="url(#pe4b1b8d34d)" d="M 692.076159 219.000631 
L 692.076159 274.595091 
L 692.076159 219.000631 
L 692.076159 219.000631 
z
" style="fill-opacity:0.2;stroke:#000000;stroke-opacity:0.2;"/>
    <path clip-path="url(#pe4b1b8d34d)" d="M 704.673992 250.394139 
L 704.673992 265.137793 
L 707.193558 255.991731 
L 709.713125 273.799213 
L 709.713125 268.450615 
L 709.713125 268.450615 
L 707.193558 241.769865 
L 704.673992 250.394139 
z
" style="fill-opacity:0.2;stroke:#000000;stroke-opacity:0.2;"/>
    <path clip-path="url(#pe4b1b8d34d)" d="M 717.271824 253.398614 
L 717.271824 267.677656 
L 719.791391 271.774168 
L 719.791391 261.471648 
L 719.791391 261.471648 
L 717.271824 253.398614 
z
" style="fill-opacity:0.2;stroke:#000000;stroke-opacity:0.2;"/>
    <path clip-path="url(#pe4b1b8d34d)" d="M 813.015352 191.147899 
L 813.015352 219.316097 
L 815.534919 270.644113 
L 818.054485 271.119182 
L 825.613185 272.127789 
L 828.132751 277.746706 
L 828.132751 199.314233 
L 828.132751 199.314233 
L 825.613185 230.105552 
L 818.054485 260.051097 
L 815.534919 251.769404 
L 813.015352 191.147899 
z
" style="fill-opacity:0.2;stroke:#000000;stroke-opacity:0.2;"/>
    <path clip-path="url(#pe4b1b8d34d)" d="M 833.171884 240.301575 
L 833.171884 281.208112 
L 835.691451 280.043239 
L 835.691451 238.930655 
L 835.691451 238.930655 
L 833.171884 240.301575 
z
" style="fill-opacity:0.2;stroke:#000000;stroke-opacity:0.2;"/>
    <path clip-path="url(#pe4b1b8d34d)" d="M 860.887116 213.517951 
L 860.887116 276.691964 
L 863.406683 267.664161 
L 865.926249 273.579885 
L 868.445816 280.809732 
L 870.965382 279.632597 
L 878.524082 284.454621 
L 878.524082 267.75369 
L 878.524082 267.75369 
L 870.965382 269.512608 
L 868.445816 256.379804 
L 865.926249 241.167654 
L 863.406683 257.693915 
L 860.887116 213.517951 
z
" style="fill-opacity:0.2;stroke:#000000;stroke-opacity:0.2;"/>
    <path clip-path="url(#pe4b1b8d34d)" d="M 891.121915 228.470402 
L 891.121915 266.5537 
L 893.641481 272.112254 
L 893.641481 222.04224 
L 893.641481 222.04224 
L 891.121915 228.470402 
z
" style="fill-opacity:0.2;stroke:#000000;stroke-opacity:0.2;"/>
    <path clip-path="url(#pe4b1b8d34d)" d="M 901.200181 260.933465 
L 901.200181 279.567299 
L 903.719747 256.317917 
L 916.31758 282.030702 
L 916.31758 256.802994 
L 916.31758 256.802994 
L 903.719747 182.27274 
L 901.200181 260.933465 
z
" style="fill-opacity:0.2;stroke:#000000;stroke-opacity:0.2;"/>
    <path clip-path="url(#pe4b1b8d34d)" d="M 921.356713 238.919191 
L 921.356713 272.447291 
L 921.356713 238.919191 
L 921.356713 238.919191 
z
" style="fill-opacity:0.2;stroke:#000000;stroke-opacity:0.2;"/>
    <path clip-path="url(#pe4b1b8d34d)" d="M 926.395846 226.217275 
L 926.395846 262.12214 
L 928.915412 301.839406 
L 928.915412 288.95191 
L 928.915412 288.95191 
L 926.395846 226.217275 
z
" style="fill-opacity:0.2;stroke:#000000;stroke-opacity:0.2;"/>
    <path clip-path="url(#pe4b1b8d34d)" d="M 933.954545 136.805046 
L 933.954545 272.035603 
L 933.954545 136.805046 
L 933.954545 136.805046 
z
" style="fill-opacity:0.2;stroke:#000000;stroke-opacity:0.2;"/>
   </g>
   <g id="PolyCollection_2">
    <path clip-path="url(#pe4b1b8d34d)" d="M 173.045455 178.220291 
L 173.045455 229.655743 
L 173.045455 178.220291 
L 173.045455 178.220291 
z
" style="fill:#ff0000;fill-opacity:0.2;stroke:#ff0000;stroke-opacity:0.2;"/>
    <path clip-path="url(#pe4b1b8d34d)" d="M 183.123721 233.35818 
L 183.123721 245.688719 
L 188.162854 249.382955 
L 188.162854 230.292559 
L 188.162854 230.292559 
L 183.123721 233.35818 
z
" style="fill:#ff0000;fill-opacity:0.2;stroke:#ff0000;stroke-opacity:0.2;"/>
    <path clip-path="url(#pe4b1b8d34d)" d="M 200.760686 200.295518 
L 200.760686 232.399247 
L 203.280253 237.545934 
L 208.319386 236.114894 
L 208.319386 230.107271 
L 208.319386 230.107271 
L 203.280253 217.91718 
L 200.760686 200.295518 
z
" style="fill:#ff0000;fill-opacity:0.2;stroke:#ff0000;stroke-opacity:0.2;"/>
    <path clip-path="url(#pe4b1b8d34d)" d="M 354.454244 247.477153 
L 354.454244 261.629286 
L 356.973811 268.18062 
L 359.493377 276.148892 
L 367.052077 283.783466 
L 369.571644 279.792822 
L 372.09121 272.446098 
L 374.610777 269.417616 
L 377.130343 276.860547 
L 379.64991 273.77707 
L 384.689043 285.357419 
L 387.208609 260.569984 
L 389.728176 273.810433 
L 392.247742 259.980848 
L 392.247742 242.304719 
L 392.247742 242.304719 
L 389.728176 244.033934 
L 387.208609 254.666572 
L 384.689043 248.717058 
L 379.64991 263.362921 
L 377.130343 255.624378 
L 374.610777 268.245071 
L 372.09121 259.470354 
L 369.571644 270.7008 
L 367.052077 260.352288 
L 359.493377 264.101668 
L 356.973811 263.633697 
L 354.454244 247.477153 
z
" style="fill:#ff0000;fill-opacity:0.2;stroke:#ff0000;stroke-opacity:0.2;"/>
    <path clip-path="url(#pe4b1b8d34d)" d="M 407.365141 234.789529 
L 407.365141 262.050618 
L 407.365141 234.789529 
L 407.365141 234.789529 
z
" style="fill:#ff0000;fill-opacity:0.2;stroke:#ff0000;stroke-opacity:0.2;"/>
    <path clip-path="url(#pe4b1b8d34d)" d="M 460.276039 216.646474 
L 460.276039 249.518515 
L 462.795605 270.222153 
L 465.315172 261.452183 
L 467.834738 264.510613 
L 467.834738 253.408448 
L 467.834738 253.408448 
L 465.315172 242.9759 
L 462.795605 253.280586 
L 460.276039 216.646474 
z
" style="fill:#ff0000;fill-opacity:0.2;stroke:#ff0000;stroke-opacity:0.2;"/>
    <path clip-path="url(#pe4b1b8d34d)" d="M 480.432571 232.821073 
L 480.432571 244.281238 
L 482.952137 264.993813 
L 485.471704 255.261052 
L 487.99127 253.230357 
L 498.069536 255.960327 
L 498.069536 255.718457 
L 498.069536 255.718457 
L 487.99127 246.283974 
L 485.471704 220.674788 
L 482.952137 229.286793 
L 480.432571 232.821073 
z
" style="fill:#ff0000;fill-opacity:0.2;stroke:#ff0000;stroke-opacity:0.2;"/>
    <path clip-path="url(#pe4b1b8d34d)" d="M 533.343468 260.10636 
L 533.343468 275.894681 
L 535.863034 274.771905 
L 535.863034 249.022986 
L 535.863034 249.022986 
L 533.343468 260.10636 
z
" style="fill:#ff0000;fill-opacity:0.2;stroke:#ff0000;stroke-opacity:0.2;"/>
    <path clip-path="url(#pe4b1b8d34d)" d="M 548.460867 261.697864 
L 548.460867 267.097192 
L 556.019567 268.686075 
L 591.293498 276.739533 
L 593.813064 279.170458 
L 593.813064 267.578177 
L 593.813064 267.578177 
L 591.293498 256.081387 
L 556.019567 267.868174 
L 548.460867 261.697864 
z
" style="fill:#ff0000;fill-opacity:0.2;stroke:#ff0000;stroke-opacity:0.2;"/>
    <path clip-path="url(#pe4b1b8d34d)" d="M 613.969597 247.311086 
L 613.969597 271.108405 
L 613.969597 247.311086 
L 613.969597 247.311086 
z
" style="fill:#ff0000;fill-opacity:0.2;stroke:#ff0000;stroke-opacity:0.2;"/>
    <path clip-path="url(#pe4b1b8d34d)" d="M 629.086996 267.412414 
L 629.086996 270.481951 
L 629.086996 267.412414 
L 629.086996 267.412414 
z
" style="fill:#ff0000;fill-opacity:0.2;stroke:#ff0000;stroke-opacity:0.2;"/>
    <path clip-path="url(#pe4b1b8d34d)" d="M 646.723961 273.721159 
L 646.723961 290.069595 
L 646.723961 273.721159 
L 646.723961 273.721159 
z
" style="fill:#ff0000;fill-opacity:0.2;stroke:#ff0000;stroke-opacity:0.2;"/>
    <path clip-path="url(#pe4b1b8d34d)" d="M 659.321794 246.793336 
L 659.321794 266.94843 
L 661.841361 266.565075 
L 664.360927 274.426565 
L 666.880494 272.37368 
L 669.40006 275.530723 
L 671.919627 273.816355 
L 674.439193 261.522851 
L 674.439193 259.147137 
L 674.439193 259.147137 
L 671.919627 264.184363 
L 669.40006 260.655386 
L 666.880494 265.450527 
L 664.360927 261.455196 
L 661.841361 248.909574 
L 659.321794 246.793336 
z
" style="fill:#ff0000;fill-opacity:0.2;stroke:#ff0000;stroke-opacity:0.2;"/>
    <path clip-path="url(#pe4b1b8d34d)" d="M 684.517459 256.111962 
L 684.517459 257.437881 
L 687.037026 280.137208 
L 687.037026 260.111843 
L 687.037026 260.111843 
L 684.517459 256.111962 
z
" style="fill:#ff0000;fill-opacity:0.2;stroke:#ff0000;stroke-opacity:0.2;"/>
    <path clip-path="url(#pe4b1b8d34d)" d="M 692.076159 255.737223 
L 692.076159 280.565266 
L 692.076159 255.737223 
L 692.076159 255.737223 
z
" style="fill:#ff0000;fill-opacity:0.2;stroke:#ff0000;stroke-opacity:0.2;"/>
    <path clip-path="url(#pe4b1b8d34d)" d="M 704.673992 256.702765 
L 704.673992 261.059864 
L 707.193558 268.807005 
L 709.713125 268.420008 
L 709.713125 250.931501 
L 709.713125 250.931501 
L 707.193558 261.502197 
L 704.673992 256.702765 
z
" style="fill:#ff0000;fill-opacity:0.2;stroke:#ff0000;stroke-opacity:0.2;"/>
    <path clip-path="url(#pe4b1b8d34d)" d="M 717.271824 250.670052 
L 717.271824 256.021427 
L 719.791391 262.381151 
L 719.791391 262.335644 
L 719.791391 262.335644 
L 717.271824 250.670052 
z
" style="fill:#ff0000;fill-opacity:0.2;stroke:#ff0000;stroke-opacity:0.2;"/>
    <path clip-path="url(#pe4b1b8d34d)" d="M 813.015352 231.938773 
L 813.015352 245.96332 
L 815.534919 272.171369 
L 818.054485 272.220023 
L 825.613185 276.899724 
L 828.132751 264.137808 
L 828.132751 229.470949 
L 828.132751 229.470949 
L 825.613185 248.082076 
L 818.054485 239.521156 
L 815.534919 242.663271 
L 813.015352 231.938773 
z
" style="fill:#ff0000;fill-opacity:0.2;stroke:#ff0000;stroke-opacity:0.2;"/>
    <path clip-path="url(#pe4b1b8d34d)" d="M 833.171884 253.541115 
L 833.171884 268.909117 
L 835.691451 266.401306 
L 835.691451 255.112046 
L 835.691451 255.112046 
L 833.171884 253.541115 
z
" style="fill:#ff0000;fill-opacity:0.2;stroke:#ff0000;stroke-opacity:0.2;"/>
    <path clip-path="url(#pe4b1b8d34d)" d="M 860.887116 243.342104 
L 860.887116 274.44622 
L 863.406683 257.357769 
L 865.926249 257.474742 
L 868.445816 257.776791 
L 870.965382 262.649584 
L 878.524082 282.494473 
L 878.524082 272.287757 
L 878.524082 272.287757 
L 870.965382 258.256923 
L 868.445816 200.417758 
L 865.926249 252.498178 
L 863.406683 242.767676 
L 860.887116 243.342104 
z
" style="fill:#ff0000;fill-opacity:0.2;stroke:#ff0000;stroke-opacity:0.2;"/>
    <path clip-path="url(#pe4b1b8d34d)" d="M 891.121915 248.17192 
L 891.121915 257.169685 
L 893.641481 253.194975 
L 893.641481 241.152074 
L 893.641481 241.152074 
L 891.121915 248.17192 
z
" style="fill:#ff0000;fill-opacity:0.2;stroke:#ff0000;stroke-opacity:0.2;"/>
    <path clip-path="url(#pe4b1b8d34d)" d="M 901.200181 240.901544 
L 901.200181 278.898101 
L 903.719747 274.750992 
L 916.31758 261.689625 
L 916.31758 247.643931 
L 916.31758 247.643931 
L 903.719747 232.501284 
L 901.200181 240.901544 
z
" style="fill:#ff0000;fill-opacity:0.2;stroke:#ff0000;stroke-opacity:0.2;"/>
    <path clip-path="url(#pe4b1b8d34d)" d="M 921.356713 253.622702 
L 921.356713 260.886919 
L 921.356713 253.622702 
L 921.356713 253.622702 
z
" style="fill:#ff0000;fill-opacity:0.2;stroke:#ff0000;stroke-opacity:0.2;"/>
    <path clip-path="url(#pe4b1b8d34d)" d="M 926.395846 227.755926 
L 926.395846 253.122393 
L 928.915412 259.679556 
L 928.915412 242.905261 
L 928.915412 242.905261 
L 926.395846 227.755926 
z
" style="fill:#ff0000;fill-opacity:0.2;stroke:#ff0000;stroke-opacity:0.2;"/>
    <path clip-path="url(#pe4b1b8d34d)" d="M 933.954545 220.052151 
L 933.954545 247.480286 
L 933.954545 220.052151 
L 933.954545 220.052151 
z
" style="fill:#ff0000;fill-opacity:0.2;stroke:#ff0000;stroke-opacity:0.2;"/>
   </g>
   <g id="matplotlib.axis_1">
    <g id="xtick_1">
     <g id="line2d_1">
      <defs>
       <path d="M 0 0 
L 0 3.5 
" id="m4f8208203e" style="stroke:#000000;stroke-width:0.8;"/>
      </defs>
      <g>
       <use style="stroke:#000000;stroke-width:0.8;" x="178.084588" xlink:href="#m4f8208203e" y="378"/>
      </g>
     </g>
     <g id="text_1">
      <!-- 2017-11 -->
      <defs>
       <path d="M 19.1875 8.296875 
L 53.609375 8.296875 
L 53.609375 0 
L 7.328125 0 
L 7.328125 8.296875 
Q 12.9375 14.109375 22.625 23.890625 
Q 32.328125 33.6875 34.8125 36.53125 
Q 39.546875 41.84375 41.421875 45.53125 
Q 43.3125 49.21875 43.3125 52.78125 
Q 43.3125 58.59375 39.234375 62.25 
Q 35.15625 65.921875 28.609375 65.921875 
Q 23.96875 65.921875 18.8125 64.3125 
Q 13.671875 62.703125 7.8125 59.421875 
L 7.8125 69.390625 
Q 13.765625 71.78125 18.9375 73 
Q 24.125 74.21875 28.421875 74.21875 
Q 39.75 74.21875 46.484375 68.546875 
Q 53.21875 62.890625 53.21875 53.421875 
Q 53.21875 48.921875 51.53125 44.890625 
Q 49.859375 40.875 45.40625 35.40625 
Q 44.1875 33.984375 37.640625 27.21875 
Q 31.109375 20.453125 19.1875 8.296875 
z
" id="DejaVuSans-50"/>
       <path d="M 31.78125 66.40625 
Q 24.171875 66.40625 20.328125 58.90625 
Q 16.5 51.421875 16.5 36.375 
Q 16.5 21.390625 20.328125 13.890625 
Q 24.171875 6.390625 31.78125 6.390625 
Q 39.453125 6.390625 43.28125 13.890625 
Q 47.125 21.390625 47.125 36.375 
Q 47.125 51.421875 43.28125 58.90625 
Q 39.453125 66.40625 31.78125 66.40625 
z
M 31.78125 74.21875 
Q 44.046875 74.21875 50.515625 64.515625 
Q 56.984375 54.828125 56.984375 36.375 
Q 56.984375 17.96875 50.515625 8.265625 
Q 44.046875 -1.421875 31.78125 -1.421875 
Q 19.53125 -1.421875 13.0625 8.265625 
Q 6.59375 17.96875 6.59375 36.375 
Q 6.59375 54.828125 13.0625 64.515625 
Q 19.53125 74.21875 31.78125 74.21875 
z
" id="DejaVuSans-48"/>
       <path d="M 12.40625 8.296875 
L 28.515625 8.296875 
L 28.515625 63.921875 
L 10.984375 60.40625 
L 10.984375 69.390625 
L 28.421875 72.90625 
L 38.28125 72.90625 
L 38.28125 8.296875 
L 54.390625 8.296875 
L 54.390625 0 
L 12.40625 0 
z
" id="DejaVuSans-49"/>
       <path d="M 8.203125 72.90625 
L 55.078125 72.90625 
L 55.078125 68.703125 
L 28.609375 0 
L 18.3125 0 
L 43.21875 64.59375 
L 8.203125 64.59375 
z
" id="DejaVuSans-55"/>
       <path d="M 4.890625 31.390625 
L 31.203125 31.390625 
L 31.203125 23.390625 
L 4.890625 23.390625 
z
" id="DejaVuSans-45"/>
      </defs>
      <g transform="translate(157.193181 392.598437)scale(0.1 -0.1)">
       <use xlink:href="#DejaVuSans-50"/>
       <use x="63.623047" xlink:href="#DejaVuSans-48"/>
       <use x="127.246094" xlink:href="#DejaVuSans-49"/>
       <use x="190.869141" xlink:href="#DejaVuSans-55"/>
       <use x="254.492188" xlink:href="#DejaVuSans-45"/>
       <use x="290.576172" xlink:href="#DejaVuSans-49"/>
       <use x="354.199219" xlink:href="#DejaVuSans-49"/>
      </g>
     </g>
    </g>
    <g id="xtick_2">
     <g id="line2d_2">
      <g>
       <use style="stroke:#000000;stroke-width:0.8;" x="253.671583" xlink:href="#m4f8208203e" y="378"/>
      </g>
     </g>
     <g id="text_2">
      <!-- 2017-12 -->
      <g transform="translate(232.780177 392.598437)scale(0.1 -0.1)">
       <use xlink:href="#DejaVuSans-50"/>
       <use x="63.623047" xlink:href="#DejaVuSans-48"/>
       <use x="127.246094" xlink:href="#DejaVuSans-49"/>
       <use x="190.869141" xlink:href="#DejaVuSans-55"/>
       <use x="254.492188" xlink:href="#DejaVuSans-45"/>
       <use x="290.576172" xlink:href="#DejaVuSans-49"/>
       <use x="354.199219" xlink:href="#DejaVuSans-50"/>
      </g>
     </g>
    </g>
    <g id="xtick_3">
     <g id="line2d_3">
      <g>
       <use style="stroke:#000000;stroke-width:0.8;" x="331.778146" xlink:href="#m4f8208203e" y="378"/>
      </g>
     </g>
     <g id="text_3">
      <!-- 2018-01 -->
      <defs>
       <path d="M 31.78125 34.625 
Q 24.75 34.625 20.71875 30.859375 
Q 16.703125 27.09375 16.703125 20.515625 
Q 16.703125 13.921875 20.71875 10.15625 
Q 24.75 6.390625 31.78125 6.390625 
Q 38.8125 6.390625 42.859375 10.171875 
Q 46.921875 13.96875 46.921875 20.515625 
Q 46.921875 27.09375 42.890625 30.859375 
Q 38.875 34.625 31.78125 34.625 
z
M 21.921875 38.8125 
Q 15.578125 40.375 12.03125 44.71875 
Q 8.5 49.078125 8.5 55.328125 
Q 8.5 64.0625 14.71875 69.140625 
Q 20.953125 74.21875 31.78125 74.21875 
Q 42.671875 74.21875 48.875 69.140625 
Q 55.078125 64.0625 55.078125 55.328125 
Q 55.078125 49.078125 51.53125 44.71875 
Q 48 40.375 41.703125 38.8125 
Q 48.828125 37.15625 52.796875 32.3125 
Q 56.78125 27.484375 56.78125 20.515625 
Q 56.78125 9.90625 50.3125 4.234375 
Q 43.84375 -1.421875 31.78125 -1.421875 
Q 19.734375 -1.421875 13.25 4.234375 
Q 6.78125 9.90625 6.78125 20.515625 
Q 6.78125 27.484375 10.78125 32.3125 
Q 14.796875 37.15625 21.921875 38.8125 
z
M 18.3125 54.390625 
Q 18.3125 48.734375 21.84375 45.5625 
Q 25.390625 42.390625 31.78125 42.390625 
Q 38.140625 42.390625 41.71875 45.5625 
Q 45.3125 48.734375 45.3125 54.390625 
Q 45.3125 60.0625 41.71875 63.234375 
Q 38.140625 66.40625 31.78125 66.40625 
Q 25.390625 66.40625 21.84375 63.234375 
Q 18.3125 60.0625 18.3125 54.390625 
z
" id="DejaVuSans-56"/>
      </defs>
      <g transform="translate(310.886739 392.598437)scale(0.1 -0.1)">
       <use xlink:href="#DejaVuSans-50"/>
       <use x="63.623047" xlink:href="#DejaVuSans-48"/>
       <use x="127.246094" xlink:href="#DejaVuSans-49"/>
       <use x="190.869141" xlink:href="#DejaVuSans-56"/>
       <use x="254.492188" xlink:href="#DejaVuSans-45"/>
       <use x="290.576172" xlink:href="#DejaVuSans-48"/>
       <use x="354.199219" xlink:href="#DejaVuSans-49"/>
      </g>
     </g>
    </g>
    <g id="xtick_4">
     <g id="line2d_4">
      <g>
       <use style="stroke:#000000;stroke-width:0.8;" x="409.884708" xlink:href="#m4f8208203e" y="378"/>
      </g>
     </g>
     <g id="text_4">
      <!-- 2018-02 -->
      <g transform="translate(388.993302 392.598437)scale(0.1 -0.1)">
       <use xlink:href="#DejaVuSans-50"/>
       <use x="63.623047" xlink:href="#DejaVuSans-48"/>
       <use x="127.246094" xlink:href="#DejaVuSans-49"/>
       <use x="190.869141" xlink:href="#DejaVuSans-56"/>
       <use x="254.492188" xlink:href="#DejaVuSans-45"/>
       <use x="290.576172" xlink:href="#DejaVuSans-48"/>
       <use x="354.199219" xlink:href="#DejaVuSans-50"/>
      </g>
     </g>
    </g>
    <g id="xtick_5">
     <g id="line2d_5">
      <g>
       <use style="stroke:#000000;stroke-width:0.8;" x="480.432571" xlink:href="#m4f8208203e" y="378"/>
      </g>
     </g>
     <g id="text_5">
      <!-- 2018-03 -->
      <defs>
       <path d="M 40.578125 39.3125 
Q 47.65625 37.796875 51.625 33 
Q 55.609375 28.21875 55.609375 21.1875 
Q 55.609375 10.40625 48.1875 4.484375 
Q 40.765625 -1.421875 27.09375 -1.421875 
Q 22.515625 -1.421875 17.65625 -0.515625 
Q 12.796875 0.390625 7.625 2.203125 
L 7.625 11.71875 
Q 11.71875 9.328125 16.59375 8.109375 
Q 21.484375 6.890625 26.8125 6.890625 
Q 36.078125 6.890625 40.9375 10.546875 
Q 45.796875 14.203125 45.796875 21.1875 
Q 45.796875 27.640625 41.28125 31.265625 
Q 36.765625 34.90625 28.71875 34.90625 
L 20.21875 34.90625 
L 20.21875 43.015625 
L 29.109375 43.015625 
Q 36.375 43.015625 40.234375 45.921875 
Q 44.09375 48.828125 44.09375 54.296875 
Q 44.09375 59.90625 40.109375 62.90625 
Q 36.140625 65.921875 28.71875 65.921875 
Q 24.65625 65.921875 20.015625 65.03125 
Q 15.375 64.15625 9.8125 62.3125 
L 9.8125 71.09375 
Q 15.4375 72.65625 20.34375 73.4375 
Q 25.25 74.21875 29.59375 74.21875 
Q 40.828125 74.21875 47.359375 69.109375 
Q 53.90625 64.015625 53.90625 55.328125 
Q 53.90625 49.265625 50.4375 45.09375 
Q 46.96875 40.921875 40.578125 39.3125 
z
" id="DejaVuSans-51"/>
      </defs>
      <g transform="translate(459.541164 392.598437)scale(0.1 -0.1)">
       <use xlink:href="#DejaVuSans-50"/>
       <use x="63.623047" xlink:href="#DejaVuSans-48"/>
       <use x="127.246094" xlink:href="#DejaVuSans-49"/>
       <use x="190.869141" xlink:href="#DejaVuSans-56"/>
       <use x="254.492188" xlink:href="#DejaVuSans-45"/>
       <use x="290.576172" xlink:href="#DejaVuSans-48"/>
       <use x="354.199219" xlink:href="#DejaVuSans-51"/>
      </g>
     </g>
    </g>
    <g id="xtick_6">
     <g id="line2d_6">
      <g>
       <use style="stroke:#000000;stroke-width:0.8;" x="558.539133" xlink:href="#m4f8208203e" y="378"/>
      </g>
     </g>
     <g id="text_6">
      <!-- 2018-04 -->
      <defs>
       <path d="M 37.796875 64.3125 
L 12.890625 25.390625 
L 37.796875 25.390625 
z
M 35.203125 72.90625 
L 47.609375 72.90625 
L 47.609375 25.390625 
L 58.015625 25.390625 
L 58.015625 17.1875 
L 47.609375 17.1875 
L 47.609375 0 
L 37.796875 0 
L 37.796875 17.1875 
L 4.890625 17.1875 
L 4.890625 26.703125 
z
" id="DejaVuSans-52"/>
      </defs>
      <g transform="translate(537.647727 392.598437)scale(0.1 -0.1)">
       <use xlink:href="#DejaVuSans-50"/>
       <use x="63.623047" xlink:href="#DejaVuSans-48"/>
       <use x="127.246094" xlink:href="#DejaVuSans-49"/>
       <use x="190.869141" xlink:href="#DejaVuSans-56"/>
       <use x="254.492188" xlink:href="#DejaVuSans-45"/>
       <use x="290.576172" xlink:href="#DejaVuSans-48"/>
       <use x="354.199219" xlink:href="#DejaVuSans-52"/>
      </g>
     </g>
    </g>
    <g id="xtick_7">
     <g id="line2d_7">
      <g>
       <use style="stroke:#000000;stroke-width:0.8;" x="634.126129" xlink:href="#m4f8208203e" y="378"/>
      </g>
     </g>
     <g id="text_7">
      <!-- 2018-05 -->
      <defs>
       <path d="M 10.796875 72.90625 
L 49.515625 72.90625 
L 49.515625 64.59375 
L 19.828125 64.59375 
L 19.828125 46.734375 
Q 21.96875 47.46875 24.109375 47.828125 
Q 26.265625 48.1875 28.421875 48.1875 
Q 40.625 48.1875 47.75 41.5 
Q 54.890625 34.8125 54.890625 23.390625 
Q 54.890625 11.625 47.5625 5.09375 
Q 40.234375 -1.421875 26.90625 -1.421875 
Q 22.3125 -1.421875 17.546875 -0.640625 
Q 12.796875 0.140625 7.71875 1.703125 
L 7.71875 11.625 
Q 12.109375 9.234375 16.796875 8.0625 
Q 21.484375 6.890625 26.703125 6.890625 
Q 35.15625 6.890625 40.078125 11.328125 
Q 45.015625 15.765625 45.015625 23.390625 
Q 45.015625 31 40.078125 35.4375 
Q 35.15625 39.890625 26.703125 39.890625 
Q 22.75 39.890625 18.8125 39.015625 
Q 14.890625 38.140625 10.796875 36.28125 
z
" id="DejaVuSans-53"/>
      </defs>
      <g transform="translate(613.234723 392.598437)scale(0.1 -0.1)">
       <use xlink:href="#DejaVuSans-50"/>
       <use x="63.623047" xlink:href="#DejaVuSans-48"/>
       <use x="127.246094" xlink:href="#DejaVuSans-49"/>
       <use x="190.869141" xlink:href="#DejaVuSans-56"/>
       <use x="254.492188" xlink:href="#DejaVuSans-45"/>
       <use x="290.576172" xlink:href="#DejaVuSans-48"/>
       <use x="354.199219" xlink:href="#DejaVuSans-53"/>
      </g>
     </g>
    </g>
    <g id="xtick_8">
     <g id="line2d_8">
      <g>
       <use style="stroke:#000000;stroke-width:0.8;" x="712.232691" xlink:href="#m4f8208203e" y="378"/>
      </g>
     </g>
     <g id="text_8">
      <!-- 2018-06 -->
      <defs>
       <path d="M 33.015625 40.375 
Q 26.375 40.375 22.484375 35.828125 
Q 18.609375 31.296875 18.609375 23.390625 
Q 18.609375 15.53125 22.484375 10.953125 
Q 26.375 6.390625 33.015625 6.390625 
Q 39.65625 6.390625 43.53125 10.953125 
Q 47.40625 15.53125 47.40625 23.390625 
Q 47.40625 31.296875 43.53125 35.828125 
Q 39.65625 40.375 33.015625 40.375 
z
M 52.59375 71.296875 
L 52.59375 62.3125 
Q 48.875 64.0625 45.09375 64.984375 
Q 41.3125 65.921875 37.59375 65.921875 
Q 27.828125 65.921875 22.671875 59.328125 
Q 17.53125 52.734375 16.796875 39.40625 
Q 19.671875 43.65625 24.015625 45.921875 
Q 28.375 48.1875 33.59375 48.1875 
Q 44.578125 48.1875 50.953125 41.515625 
Q 57.328125 34.859375 57.328125 23.390625 
Q 57.328125 12.15625 50.6875 5.359375 
Q 44.046875 -1.421875 33.015625 -1.421875 
Q 20.359375 -1.421875 13.671875 8.265625 
Q 6.984375 17.96875 6.984375 36.375 
Q 6.984375 53.65625 15.1875 63.9375 
Q 23.390625 74.21875 37.203125 74.21875 
Q 40.921875 74.21875 44.703125 73.484375 
Q 48.484375 72.75 52.59375 71.296875 
z
" id="DejaVuSans-54"/>
      </defs>
      <g transform="translate(691.341285 392.598437)scale(0.1 -0.1)">
       <use xlink:href="#DejaVuSans-50"/>
       <use x="63.623047" xlink:href="#DejaVuSans-48"/>
       <use x="127.246094" xlink:href="#DejaVuSans-49"/>
       <use x="190.869141" xlink:href="#DejaVuSans-56"/>
       <use x="254.492188" xlink:href="#DejaVuSans-45"/>
       <use x="290.576172" xlink:href="#DejaVuSans-48"/>
       <use x="354.199219" xlink:href="#DejaVuSans-54"/>
      </g>
     </g>
    </g>
    <g id="xtick_9">
     <g id="line2d_9">
      <g>
       <use style="stroke:#000000;stroke-width:0.8;" x="787.819687" xlink:href="#m4f8208203e" y="378"/>
      </g>
     </g>
     <g id="text_9">
      <!-- 2018-07 -->
      <g transform="translate(766.928281 392.598437)scale(0.1 -0.1)">
       <use xlink:href="#DejaVuSans-50"/>
       <use x="63.623047" xlink:href="#DejaVuSans-48"/>
       <use x="127.246094" xlink:href="#DejaVuSans-49"/>
       <use x="190.869141" xlink:href="#DejaVuSans-56"/>
       <use x="254.492188" xlink:href="#DejaVuSans-45"/>
       <use x="290.576172" xlink:href="#DejaVuSans-48"/>
       <use x="354.199219" xlink:href="#DejaVuSans-55"/>
      </g>
     </g>
    </g>
    <g id="xtick_10">
     <g id="line2d_10">
      <g>
       <use style="stroke:#000000;stroke-width:0.8;" x="865.926249" xlink:href="#m4f8208203e" y="378"/>
      </g>
     </g>
     <g id="text_10">
      <!-- 2018-08 -->
      <g transform="translate(845.034843 392.598437)scale(0.1 -0.1)">
       <use xlink:href="#DejaVuSans-50"/>
       <use x="63.623047" xlink:href="#DejaVuSans-48"/>
       <use x="127.246094" xlink:href="#DejaVuSans-49"/>
       <use x="190.869141" xlink:href="#DejaVuSans-56"/>
       <use x="254.492188" xlink:href="#DejaVuSans-45"/>
       <use x="290.576172" xlink:href="#DejaVuSans-48"/>
       <use x="354.199219" xlink:href="#DejaVuSans-56"/>
      </g>
     </g>
    </g>
    <g id="xtick_11">
     <g id="line2d_11">
      <g>
       <use style="stroke:#000000;stroke-width:0.8;" x="944.032812" xlink:href="#m4f8208203e" y="378"/>
      </g>
     </g>
     <g id="text_11">
      <!-- 2018-09 -->
      <defs>
       <path d="M 10.984375 1.515625 
L 10.984375 10.5 
Q 14.703125 8.734375 18.5 7.8125 
Q 22.3125 6.890625 25.984375 6.890625 
Q 35.75 6.890625 40.890625 13.453125 
Q 46.046875 20.015625 46.78125 33.40625 
Q 43.953125 29.203125 39.59375 26.953125 
Q 35.25 24.703125 29.984375 24.703125 
Q 19.046875 24.703125 12.671875 31.3125 
Q 6.296875 37.9375 6.296875 49.421875 
Q 6.296875 60.640625 12.9375 67.421875 
Q 19.578125 74.21875 30.609375 74.21875 
Q 43.265625 74.21875 49.921875 64.515625 
Q 56.59375 54.828125 56.59375 36.375 
Q 56.59375 19.140625 48.40625 8.859375 
Q 40.234375 -1.421875 26.421875 -1.421875 
Q 22.703125 -1.421875 18.890625 -0.6875 
Q 15.09375 0.046875 10.984375 1.515625 
z
M 30.609375 32.421875 
Q 37.25 32.421875 41.125 36.953125 
Q 45.015625 41.5 45.015625 49.421875 
Q 45.015625 57.28125 41.125 61.84375 
Q 37.25 66.40625 30.609375 66.40625 
Q 23.96875 66.40625 20.09375 61.84375 
Q 16.21875 57.28125 16.21875 49.421875 
Q 16.21875 41.5 20.09375 36.953125 
Q 23.96875 32.421875 30.609375 32.421875 
z
" id="DejaVuSans-57"/>
      </defs>
      <g transform="translate(923.141405 392.598437)scale(0.1 -0.1)">
       <use xlink:href="#DejaVuSans-50"/>
       <use x="63.623047" xlink:href="#DejaVuSans-48"/>
       <use x="127.246094" xlink:href="#DejaVuSans-49"/>
       <use x="190.869141" xlink:href="#DejaVuSans-56"/>
       <use x="254.492188" xlink:href="#DejaVuSans-45"/>
       <use x="290.576172" xlink:href="#DejaVuSans-48"/>
       <use x="354.199219" xlink:href="#DejaVuSans-57"/>
      </g>
     </g>
    </g>
    <g id="text_12">
     <!-- Date -->
     <defs>
      <path d="M 19.671875 64.796875 
L 19.671875 8.109375 
L 31.59375 8.109375 
Q 46.6875 8.109375 53.6875 14.9375 
Q 60.6875 21.78125 60.6875 36.53125 
Q 60.6875 51.171875 53.6875 57.984375 
Q 46.6875 64.796875 31.59375 64.796875 
z
M 9.8125 72.90625 
L 30.078125 72.90625 
Q 51.265625 72.90625 61.171875 64.09375 
Q 71.09375 55.28125 71.09375 36.53125 
Q 71.09375 17.671875 61.125 8.828125 
Q 51.171875 0 30.078125 0 
L 9.8125 0 
z
" id="DejaVuSans-68"/>
      <path d="M 34.28125 27.484375 
Q 23.390625 27.484375 19.1875 25 
Q 14.984375 22.515625 14.984375 16.5 
Q 14.984375 11.71875 18.140625 8.90625 
Q 21.296875 6.109375 26.703125 6.109375 
Q 34.1875 6.109375 38.703125 11.40625 
Q 43.21875 16.703125 43.21875 25.484375 
L 43.21875 27.484375 
z
M 52.203125 31.203125 
L 52.203125 0 
L 43.21875 0 
L 43.21875 8.296875 
Q 40.140625 3.328125 35.546875 0.953125 
Q 30.953125 -1.421875 24.3125 -1.421875 
Q 15.921875 -1.421875 10.953125 3.296875 
Q 6 8.015625 6 15.921875 
Q 6 25.140625 12.171875 29.828125 
Q 18.359375 34.515625 30.609375 34.515625 
L 43.21875 34.515625 
L 43.21875 35.40625 
Q 43.21875 41.609375 39.140625 45 
Q 35.0625 48.390625 27.6875 48.390625 
Q 23 48.390625 18.546875 47.265625 
Q 14.109375 46.140625 10.015625 43.890625 
L 10.015625 52.203125 
Q 14.9375 54.109375 19.578125 55.046875 
Q 24.21875 56 28.609375 56 
Q 40.484375 56 46.34375 49.84375 
Q 52.203125 43.703125 52.203125 31.203125 
z
" id="DejaVuSans-97"/>
      <path d="M 18.3125 70.21875 
L 18.3125 54.6875 
L 36.8125 54.6875 
L 36.8125 47.703125 
L 18.3125 47.703125 
L 18.3125 18.015625 
Q 18.3125 11.328125 20.140625 9.421875 
Q 21.96875 7.515625 27.59375 7.515625 
L 36.8125 7.515625 
L 36.8125 0 
L 27.59375 0 
Q 17.1875 0 13.234375 3.875 
Q 9.28125 7.765625 9.28125 18.015625 
L 9.28125 47.703125 
L 2.6875 47.703125 
L 2.6875 54.6875 
L 9.28125 54.6875 
L 9.28125 70.21875 
z
" id="DejaVuSans-116"/>
      <path d="M 56.203125 29.59375 
L 56.203125 25.203125 
L 14.890625 25.203125 
Q 15.484375 15.921875 20.484375 11.0625 
Q 25.484375 6.203125 34.421875 6.203125 
Q 39.59375 6.203125 44.453125 7.46875 
Q 49.3125 8.734375 54.109375 11.28125 
L 54.109375 2.78125 
Q 49.265625 0.734375 44.1875 -0.34375 
Q 39.109375 -1.421875 33.890625 -1.421875 
Q 20.796875 -1.421875 13.15625 6.1875 
Q 5.515625 13.8125 5.515625 26.8125 
Q 5.515625 40.234375 12.765625 48.109375 
Q 20.015625 56 32.328125 56 
Q 43.359375 56 49.78125 48.890625 
Q 56.203125 41.796875 56.203125 29.59375 
z
M 47.21875 32.234375 
Q 47.125 39.59375 43.09375 43.984375 
Q 39.0625 48.390625 32.421875 48.390625 
Q 24.90625 48.390625 20.390625 44.140625 
Q 15.875 39.890625 15.1875 32.171875 
z
" id="DejaVuSans-101"/>
     </defs>
     <g transform="translate(541.549219 406.276563)scale(0.1 -0.1)">
      <use xlink:href="#DejaVuSans-68"/>
      <use x="77.001953" xlink:href="#DejaVuSans-97"/>
      <use x="138.28125" xlink:href="#DejaVuSans-116"/>
      <use x="177.490234" xlink:href="#DejaVuSans-101"/>
     </g>
    </g>
   </g>
   <g id="matplotlib.axis_2">
    <g id="ytick_1">
     <g id="line2d_12">
      <defs>
       <path d="M 0 0 
L -3.5 0 
" id="mbe7386f0fe" style="stroke:#000000;stroke-width:0.8;"/>
      </defs>
      <g>
       <use style="stroke:#000000;stroke-width:0.8;" x="135" xlink:href="#mbe7386f0fe" y="368.686168"/>
      </g>
     </g>
     <g id="text_13">
      <!-- 0.2 -->
      <defs>
       <path d="M 10.6875 12.40625 
L 21 12.40625 
L 21 0 
L 10.6875 0 
z
" id="DejaVuSans-46"/>
      </defs>
      <g transform="translate(112.096875 372.485387)scale(0.1 -0.1)">
       <use xlink:href="#DejaVuSans-48"/>
       <use x="63.623047" xlink:href="#DejaVuSans-46"/>
       <use x="95.410156" xlink:href="#DejaVuSans-50"/>
      </g>
     </g>
    </g>
    <g id="ytick_2">
     <g id="line2d_13">
      <g>
       <use style="stroke:#000000;stroke-width:0.8;" x="135" xlink:href="#mbe7386f0fe" y="331.998691"/>
      </g>
     </g>
     <g id="text_14">
      <!-- 0.4 -->
      <g transform="translate(112.096875 335.79791)scale(0.1 -0.1)">
       <use xlink:href="#DejaVuSans-48"/>
       <use x="63.623047" xlink:href="#DejaVuSans-46"/>
       <use x="95.410156" xlink:href="#DejaVuSans-52"/>
      </g>
     </g>
    </g>
    <g id="ytick_3">
     <g id="line2d_14">
      <g>
       <use style="stroke:#000000;stroke-width:0.8;" x="135" xlink:href="#mbe7386f0fe" y="295.311214"/>
      </g>
     </g>
     <g id="text_15">
      <!-- 0.6 -->
      <g transform="translate(112.096875 299.110433)scale(0.1 -0.1)">
       <use xlink:href="#DejaVuSans-48"/>
       <use x="63.623047" xlink:href="#DejaVuSans-46"/>
       <use x="95.410156" xlink:href="#DejaVuSans-54"/>
      </g>
     </g>
    </g>
    <g id="ytick_4">
     <g id="line2d_15">
      <g>
       <use style="stroke:#000000;stroke-width:0.8;" x="135" xlink:href="#mbe7386f0fe" y="258.623737"/>
      </g>
     </g>
     <g id="text_16">
      <!-- 0.8 -->
      <g transform="translate(112.096875 262.422955)scale(0.1 -0.1)">
       <use xlink:href="#DejaVuSans-48"/>
       <use x="63.623047" xlink:href="#DejaVuSans-46"/>
       <use x="95.410156" xlink:href="#DejaVuSans-56"/>
      </g>
     </g>
    </g>
    <g id="ytick_5">
     <g id="line2d_16">
      <g>
       <use style="stroke:#000000;stroke-width:0.8;" x="135" xlink:href="#mbe7386f0fe" y="221.936259"/>
      </g>
     </g>
     <g id="text_17">
      <!-- 1.0 -->
      <g transform="translate(112.096875 225.735478)scale(0.1 -0.1)">
       <use xlink:href="#DejaVuSans-49"/>
       <use x="63.623047" xlink:href="#DejaVuSans-46"/>
       <use x="95.410156" xlink:href="#DejaVuSans-48"/>
      </g>
     </g>
    </g>
    <g id="ytick_6">
     <g id="line2d_17">
      <g>
       <use style="stroke:#000000;stroke-width:0.8;" x="135" xlink:href="#mbe7386f0fe" y="185.248782"/>
      </g>
     </g>
     <g id="text_18">
      <!-- 1.2 -->
      <g transform="translate(112.096875 189.048001)scale(0.1 -0.1)">
       <use xlink:href="#DejaVuSans-49"/>
       <use x="63.623047" xlink:href="#DejaVuSans-46"/>
       <use x="95.410156" xlink:href="#DejaVuSans-50"/>
      </g>
     </g>
    </g>
    <g id="ytick_7">
     <g id="line2d_18">
      <g>
       <use style="stroke:#000000;stroke-width:0.8;" x="135" xlink:href="#mbe7386f0fe" y="148.561305"/>
      </g>
     </g>
     <g id="text_19">
      <!-- 1.4 -->
      <g transform="translate(112.096875 152.360524)scale(0.1 -0.1)">
       <use xlink:href="#DejaVuSans-49"/>
       <use x="63.623047" xlink:href="#DejaVuSans-46"/>
       <use x="95.410156" xlink:href="#DejaVuSans-52"/>
      </g>
     </g>
    </g>
    <g id="ytick_8">
     <g id="line2d_19">
      <g>
       <use style="stroke:#000000;stroke-width:0.8;" x="135" xlink:href="#mbe7386f0fe" y="111.873828"/>
      </g>
     </g>
     <g id="text_20">
      <!-- 1.6 -->
      <g transform="translate(112.096875 115.673046)scale(0.1 -0.1)">
       <use xlink:href="#DejaVuSans-49"/>
       <use x="63.623047" xlink:href="#DejaVuSans-46"/>
       <use x="95.410156" xlink:href="#DejaVuSans-54"/>
      </g>
     </g>
    </g>
    <g id="ytick_9">
     <g id="line2d_20">
      <g>
       <use style="stroke:#000000;stroke-width:0.8;" x="135" xlink:href="#mbe7386f0fe" y="75.18635"/>
      </g>
     </g>
     <g id="text_21">
      <!-- 1.8 -->
      <g transform="translate(112.096875 78.985569)scale(0.1 -0.1)">
       <use xlink:href="#DejaVuSans-49"/>
       <use x="63.623047" xlink:href="#DejaVuSans-46"/>
       <use x="95.410156" xlink:href="#DejaVuSans-56"/>
      </g>
     </g>
    </g>
    <g id="text_22">
     <!-- full fit -->
     <defs>
      <path d="M 37.109375 75.984375 
L 37.109375 68.5 
L 28.515625 68.5 
Q 23.6875 68.5 21.796875 66.546875 
Q 19.921875 64.59375 19.921875 59.515625 
L 19.921875 54.6875 
L 34.71875 54.6875 
L 34.71875 47.703125 
L 19.921875 47.703125 
L 19.921875 0 
L 10.890625 0 
L 10.890625 47.703125 
L 2.296875 47.703125 
L 2.296875 54.6875 
L 10.890625 54.6875 
L 10.890625 58.5 
Q 10.890625 67.625 15.140625 71.796875 
Q 19.390625 75.984375 28.609375 75.984375 
z
" id="DejaVuSans-102"/>
      <path d="M 8.5 21.578125 
L 8.5 54.6875 
L 17.484375 54.6875 
L 17.484375 21.921875 
Q 17.484375 14.15625 20.5 10.265625 
Q 23.53125 6.390625 29.59375 6.390625 
Q 36.859375 6.390625 41.078125 11.03125 
Q 45.3125 15.671875 45.3125 23.6875 
L 45.3125 54.6875 
L 54.296875 54.6875 
L 54.296875 0 
L 45.3125 0 
L 45.3125 8.40625 
Q 42.046875 3.421875 37.71875 1 
Q 33.40625 -1.421875 27.6875 -1.421875 
Q 18.265625 -1.421875 13.375 4.4375 
Q 8.5 10.296875 8.5 21.578125 
z
M 31.109375 56 
z
" id="DejaVuSans-117"/>
      <path d="M 9.421875 75.984375 
L 18.40625 75.984375 
L 18.40625 0 
L 9.421875 0 
z
" id="DejaVuSans-108"/>
      <path id="DejaVuSans-32"/>
      <path d="M 9.421875 54.6875 
L 18.40625 54.6875 
L 18.40625 0 
L 9.421875 0 
z
M 9.421875 75.984375 
L 18.40625 75.984375 
L 18.40625 64.59375 
L 9.421875 64.59375 
z
" id="DejaVuSans-105"/>
     </defs>
     <g transform="translate(106.017187 229.325469)rotate(-90)scale(0.1 -0.1)">
      <use xlink:href="#DejaVuSans-102"/>
      <use x="35.205078" xlink:href="#DejaVuSans-117"/>
      <use x="98.583984" xlink:href="#DejaVuSans-108"/>
      <use x="126.367188" xlink:href="#DejaVuSans-108"/>
      <use x="154.150391" xlink:href="#DejaVuSans-32"/>
      <use x="185.9375" xlink:href="#DejaVuSans-102"/>
      <use x="221.142578" xlink:href="#DejaVuSans-105"/>
      <use x="248.925781" xlink:href="#DejaVuSans-116"/>
     </g>
    </g>
    <g id="text_23">
     <!-- 1e6 -->
     <g transform="translate(135 48.84)scale(0.1 -0.1)">
      <use xlink:href="#DejaVuSans-49"/>
      <use x="63.623047" xlink:href="#DejaVuSans-101"/>
      <use x="125.146484" xlink:href="#DejaVuSans-54"/>
     </g>
    </g>
   </g>
   <g id="line2d_21">
    <path clip-path="url(#pe4b1b8d34d)" d="M 173.045455 258.300084 
L 175.565021 280.679801 
L 178.084588 270.292968 
L 183.123721 289.308351 
L 188.162854 258.094017 
L 190.68242 278.695387 
L 193.201987 84.55624 
L 195.721553 227.7861 
L 200.760686 176.082198 
L 203.280253 175.364817 
L 208.319386 149.984596 
L 210.838952 258.334261 
L 215.878085 214.317898 
L 220.917219 234.894781 
L 354.454244 262.195904 
L 356.973811 233.037059 
L 359.493377 263.967348 
L 367.052077 268.45969 
L 369.571644 264.765996 
L 372.09121 271.961081 
L 374.610777 259.387191 
L 377.130343 252.04953 
L 379.64991 277.683477 
L 384.689043 276.79513 
L 387.208609 260.303392 
L 389.728176 261.643996 
L 392.247742 255.741194 
L 397.286875 254.884606 
L 399.806442 263.229265 
L 404.845575 242.607979 
L 407.365141 254.477543 
L 417.443408 281.808101 
L 455.236905 262.075271 
L 457.756472 281.223784 
L 460.276039 218.169444 
L 462.795605 263.303918 
L 465.315172 264.134379 
L 467.834738 257.58807 
L 477.913004 278.9245 
L 480.432571 265.912489 
L 482.952137 263.462591 
L 485.471704 259.243369 
L 487.99127 223.897962 
L 498.069536 261.713688 
L 510.667369 247.59759 
L 513.186936 274.979037 
L 525.784768 263.946356 
L 530.823901 266.65396 
L 533.343468 271.996895 
L 535.863034 257.030738 
L 543.421734 270.010463 
L 545.9413 286.827326 
L 548.460867 255.50412 
L 556.019567 267.029118 
L 591.293498 270.063058 
L 593.813064 262.251939 
L 596.332631 290.477077 
L 603.891331 283.238661 
L 608.930464 255.640001 
L 611.45003 253.933174 
L 613.969597 253.223821 
L 619.00873 283.229672 
L 621.528296 254.493839 
L 624.047863 143.579879 
L 629.086996 268.429359 
L 634.126129 268.303475 
L 636.645695 279.01881 
L 639.165262 259.361441 
L 641.684828 285.723102 
L 644.204395 278.822635 
L 646.723961 285.066155 
L 649.243528 281.860197 
L 651.763095 257.75124 
L 654.282661 267.621203 
L 656.802228 280.850294 
L 659.321794 272.809695 
L 661.841361 268.382777 
L 664.360927 272.45649 
L 666.880494 272.703032 
L 669.40006 266.874802 
L 671.919627 272.956605 
L 674.439193 268.573512 
L 676.95876 273.927333 
L 679.478326 257.3567 
L 681.997893 275.687564 
L 684.517459 268.304054 
L 687.037026 271.718518 
L 689.556592 268.489206 
L 692.076159 246.797861 
L 694.595725 267.874851 
L 697.115292 244.625905 
L 699.634859 250.392546 
L 704.673992 257.765966 
L 707.193558 248.880798 
L 709.713125 270.656793 
L 712.232691 245.625077 
L 717.271824 260.538135 
L 719.791391 266.622908 
L 757.584889 246.964078 
L 762.624022 256.132187 
L 810.495786 191.522983 
L 813.015352 205.231998 
L 815.534919 260.958176 
L 818.054485 265.585139 
L 828.132751 246.246406 
L 830.652318 189.59008 
L 833.171884 265.039218 
L 835.691451 263.074298 
L 838.211017 195.566241 
L 853.328417 259.757999 
L 860.887116 251.332754 
L 863.406683 262.679038 
L 865.926249 259.170876 
L 868.445816 270.560065 
L 870.965382 275.055103 
L 878.524082 276.104156 
L 881.043648 252.716342 
L 886.082781 209.241085 
L 888.602348 247.72673 
L 891.121915 241.256733 
L 893.641481 247.077247 
L 896.161048 272.425967 
L 901.200181 270.250382 
L 903.719747 229.180393 
L 916.31758 272.015621 
L 918.837146 363.174545 
L 921.356713 255.683241 
L 923.876279 243.607139 
L 926.395846 244.169707 
L 928.915412 295.395658 
L 931.434979 255.480973 
L 933.954545 219.27284 
L 933.954545 219.27284 
" style="fill:none;stroke:#000000;stroke-linecap:square;stroke-width:1.5;"/>
   </g>
   <g id="line2d_22">
    <path clip-path="url(#pe4b1b8d34d)" d="M 173.045455 203.938017 
L 175.565021 249.460707 
L 178.084588 231.723392 
L 183.123721 239.52345 
L 188.162854 240.271686 
L 190.68242 228.552854 
L 193.201987 225.417512 
L 195.721553 226.779886 
L 200.760686 216.347382 
L 203.280253 228.926501 
L 208.319386 233.111083 
L 210.838952 239.45749 
L 215.878085 192.422438 
L 220.917219 256.687099 
L 354.454244 256.071966 
L 356.973811 265.907158 
L 359.493377 269.18746 
L 367.052077 271.323166 
L 369.571644 276.287145 
L 372.09121 265.81648 
L 374.610777 268.831344 
L 377.130343 266.242463 
L 379.64991 268.914953 
L 384.689043 267.037239 
L 387.208609 257.618278 
L 389.728176 258.599318 
L 392.247742 251.157128 
L 397.286875 241.598935 
L 399.806442 244.729907 
L 404.845575 242.421622 
L 407.365141 249.061787 
L 417.443408 279.276845 
L 455.236905 244.851672 
L 457.756472 260.802745 
L 460.276039 233.01737 
L 462.795605 261.75137 
L 465.315172 252.569463 
L 467.834738 259.170685 
L 477.913004 266.766098 
L 480.432571 238.551155 
L 482.952137 247.140303 
L 485.471704 241.31279 
L 487.99127 248.98111 
L 498.069536 255.839392 
L 510.667369 274.194976 
L 513.186936 283.071315 
L 525.784768 252.53103 
L 530.823901 267.413196 
L 533.343468 268.00052 
L 535.863034 261.897446 
L 543.421734 272.189176 
L 545.9413 256.480015 
L 548.460867 264.397528 
L 556.019567 268.277124 
L 591.293498 266.41046 
L 593.813064 273.374317 
L 596.332631 270.138905 
L 603.891331 277.009859 
L 608.930464 271.850169 
L 611.45003 272.033154 
L 613.969597 257.099727 
L 619.00873 270.304401 
L 621.528296 251.484295 
L 624.047863 240.900422 
L 629.086996 268.947182 
L 634.126129 260.569037 
L 636.645695 286.61642 
L 639.165262 271.662556 
L 641.684828 273.705177 
L 644.204395 275.48172 
L 646.723961 281.895377 
L 649.243528 291.251687 
L 651.763095 269.017761 
L 654.282661 245.338049 
L 656.802228 268.776904 
L 659.321794 256.870883 
L 661.841361 257.737324 
L 664.360927 268.636766 
L 666.880494 268.912104 
L 669.40006 268.093054 
L 671.919627 269.000359 
L 674.439193 260.334994 
L 676.95876 275.534011 
L 679.478326 258.390689 
L 681.997893 272.110033 
L 684.517459 256.774922 
L 687.037026 270.124525 
L 689.556592 282.124296 
L 692.076159 268.151244 
L 694.595725 258.080331 
L 697.115292 255.808222 
L 699.634859 259.621029 
L 704.673992 258.881315 
L 707.193558 265.154601 
L 709.713125 260.849843 
L 712.232691 249.41768 
L 717.271824 253.34574 
L 719.791391 262.358398 
L 757.584889 272.188759 
L 762.624022 251.771196 
L 810.495786 253.377873 
L 813.015352 238.951046 
L 815.534919 257.197896 
L 818.054485 255.87059 
L 825.613185 262.4909 
L 828.132751 252.018271 
L 830.652318 231.429383 
L 833.171884 263.372682 
L 835.691451 262.353917 
L 838.211017 235.71552 
L 853.328417 246.345085 
L 860.887116 263.438161 
L 863.406683 250.062722 
L 865.926249 255.01533 
L 868.445816 238.464437 
L 870.965382 260.453253 
L 878.524082 277.391115 
L 881.043648 288.699431 
L 886.082781 249.178771 
L 888.602348 237.034557 
L 891.121915 254.113663 
L 893.641481 247.173524 
L 896.161048 248.87372 
L 901.200181 259.899823 
L 903.719747 256.048982 
L 916.31758 255.113673 
L 918.837146 271.201749 
L 921.356713 257.254811 
L 923.876279 247.295449 
L 926.395846 240.43916 
L 928.915412 251.292409 
L 931.434979 245.656501 
L 933.954545 236.068646 
L 933.954545 236.068646 
" style="fill:none;stroke:#ff0000;stroke-linecap:square;stroke-width:1.5;"/>
   </g>
   <g id="patch_3">
    <path d="M 135 378 
L 135 51.84 
" style="fill:none;stroke:#000000;stroke-linecap:square;stroke-linejoin:miter;stroke-width:0.8;"/>
   </g>
   <g id="patch_4">
    <path d="M 972 378 
L 972 51.84 
" style="fill:none;stroke:#000000;stroke-linecap:square;stroke-linejoin:miter;stroke-width:0.8;"/>
   </g>
   <g id="patch_5">
    <path d="M 135 378 
L 972 378 
" style="fill:none;stroke:#000000;stroke-linecap:square;stroke-linejoin:miter;stroke-width:0.8;"/>
   </g>
   <g id="patch_6">
    <path d="M 135 51.84 
L 972 51.84 
" style="fill:none;stroke:#000000;stroke-linecap:square;stroke-linejoin:miter;stroke-width:0.8;"/>
   </g>
   <g id="legend_1">
    <g id="patch_7">
     <path d="M 142 89.19625 
L 204.790625 89.19625 
Q 206.790625 89.19625 206.790625 87.19625 
L 206.790625 58.84 
Q 206.790625 56.84 204.790625 56.84 
L 142 56.84 
Q 140 56.84 140 58.84 
L 140 87.19625 
Q 140 89.19625 142 89.19625 
z
" style="fill:#ffffff;opacity:0.8;stroke:#cccccc;stroke-linejoin:miter;"/>
    </g>
    <g id="line2d_23">
     <path d="M 144 64.938437 
L 164 64.938437 
" style="fill:none;stroke:#000000;stroke-linecap:square;stroke-width:1.5;"/>
    </g>
    <g id="line2d_24"/>
    <g id="text_24">
     <!-- actual -->
     <defs>
      <path d="M 48.78125 52.59375 
L 48.78125 44.1875 
Q 44.96875 46.296875 41.140625 47.34375 
Q 37.3125 48.390625 33.40625 48.390625 
Q 24.65625 48.390625 19.8125 42.84375 
Q 14.984375 37.3125 14.984375 27.296875 
Q 14.984375 17.28125 19.8125 11.734375 
Q 24.65625 6.203125 33.40625 6.203125 
Q 37.3125 6.203125 41.140625 7.25 
Q 44.96875 8.296875 48.78125 10.40625 
L 48.78125 2.09375 
Q 45.015625 0.34375 40.984375 -0.53125 
Q 36.96875 -1.421875 32.421875 -1.421875 
Q 20.0625 -1.421875 12.78125 6.34375 
Q 5.515625 14.109375 5.515625 27.296875 
Q 5.515625 40.671875 12.859375 48.328125 
Q 20.21875 56 33.015625 56 
Q 37.15625 56 41.109375 55.140625 
Q 45.0625 54.296875 48.78125 52.59375 
z
" id="DejaVuSans-99"/>
     </defs>
     <g transform="translate(172 68.438437)scale(0.1 -0.1)">
      <use xlink:href="#DejaVuSans-97"/>
      <use x="61.279297" xlink:href="#DejaVuSans-99"/>
      <use x="116.259766" xlink:href="#DejaVuSans-116"/>
      <use x="155.46875" xlink:href="#DejaVuSans-117"/>
      <use x="218.847656" xlink:href="#DejaVuSans-97"/>
      <use x="280.126953" xlink:href="#DejaVuSans-108"/>
     </g>
    </g>
    <g id="line2d_25">
     <path d="M 144 79.616562 
L 164 79.616562 
" style="fill:none;stroke:#ff0000;stroke-linecap:square;stroke-width:1.5;"/>
    </g>
    <g id="line2d_26"/>
    <g id="text_25">
     <!-- full fit -->
     <g transform="translate(172 83.116562)scale(0.1 -0.1)">
      <use xlink:href="#DejaVuSans-102"/>
      <use x="35.205078" xlink:href="#DejaVuSans-117"/>
      <use x="98.583984" xlink:href="#DejaVuSans-108"/>
      <use x="126.367188" xlink:href="#DejaVuSans-108"/>
      <use x="154.150391" xlink:href="#DejaVuSans-32"/>
      <use x="185.9375" xlink:href="#DejaVuSans-102"/>
      <use x="221.142578" xlink:href="#DejaVuSans-105"/>
      <use x="248.925781" xlink:href="#DejaVuSans-116"/>
     </g>
    </g>
   </g>
  </g>
  <g id="axes_2">
   <g id="PolyCollection_3">
    <path clip-path="url(#pe4b1b8d34d)" d="M 173.045455 -2567659.747723 
L 173.045455 -1898940.055 
L 173.045455 -2567659.747723 
L 173.045455 -2567659.747723 
z
" style="fill:#ffcccc;fill-opacity:0.2;stroke:#ffcccc;stroke-opacity:0.2;"/>
    <path clip-path="url(#pe4b1b8d34d)" d="M 183.123721 -1892484.958931 
L 183.123721 -1689817.275583 
L 188.162854 -1728639.745883 
L 188.162854 -1936346.057813 
L 188.162854 -1936346.057813 
L 183.123721 -1892484.958931 
z
" style="fill:#ffcccc;fill-opacity:0.2;stroke:#ffcccc;stroke-opacity:0.2;"/>
    <path clip-path="url(#pe4b1b8d34d)" d="M 200.760686 -2217658.33159 
L 200.760686 -1873535.71512 
L 203.280253 -1818958.859354 
L 208.319386 -1886744.737897 
L 208.319386 -1926036.264647 
L 208.319386 -1926036.264647 
L 203.280253 -2024724.872753 
L 200.760686 -2217658.33159 
z
" style="fill:#ffcccc;fill-opacity:0.2;stroke:#ffcccc;stroke-opacity:0.2;"/>
    <path clip-path="url(#pe4b1b8d34d)" d="M 354.454244 -1729782.881231 
L 354.454244 -1421124.77472 
L 356.973811 -1492584.260987 
L 359.493377 -1417223.236065 
L 367.052077 -1331401.023417 
L 369.571644 -1149417.093267 
L 372.09121 -1449776.503847 
L 374.610777 -1435072.823572 
L 377.130343 -1400527.50291 
L 379.64991 -1437394.863558 
L 384.689043 -1320628.392661 
L 387.208609 -1529779.734083 
L 389.728176 -1561247.622076 
L 392.247742 -1549528.120008 
L 392.247742 -1718674.337522 
L 392.247742 -1718674.337522 
L 389.728176 -1674939.161608 
L 387.208609 -1638621.024241 
L 384.689043 -1685014.30537 
L 379.64991 -1566474.393268 
L 377.130343 -1611031.574134 
L 374.610777 -1467479.146459 
L 372.09121 -1576813.572734 
L 369.571644 -1405935.77348 
L 367.052077 -1567442.768812 
L 359.493377 -1524932.466795 
L 356.973811 -1513569.382941 
L 354.454244 -1729782.881231 
z
" style="fill:#ffcccc;fill-opacity:0.2;stroke:#ffcccc;stroke-opacity:0.2;"/>
    <path clip-path="url(#pe4b1b8d34d)" d="M 407.365141 -1771975.963868 
L 407.365141 -1549839.754832 
L 407.365141 -1771975.963868 
L 407.365141 -1771975.963868 
z
" style="fill:#ffcccc;fill-opacity:0.2;stroke:#ffcccc;stroke-opacity:0.2;"/>
    <path clip-path="url(#pe4b1b8d34d)" d="M 460.276039 -1891734.681539 
L 460.276039 -1688888.390502 
L 462.795605 -1581598.431536 
L 465.315172 -1579611.58942 
L 467.834738 -1466270.539744 
L 467.834738 -1695510.539272 
L 467.834738 -1695510.539272 
L 465.315172 -1747934.127293 
L 462.795605 -1636315.472777 
L 460.276039 -1891734.681539 
z
" style="fill:#ffcccc;fill-opacity:0.2;stroke:#ffcccc;stroke-opacity:0.2;"/>
    <path clip-path="url(#pe4b1b8d34d)" d="M 480.432571 -1848911.88551 
L 480.432571 -1802481.398216 
L 482.952137 -1546747.931945 
L 485.471704 -1667049.62073 
L 487.99127 -1710353.476343 
L 498.069536 -1655146.113853 
L 498.069536 -1680467.824518 
L 498.069536 -1680467.824518 
L 487.99127 -1776561.064865 
L 485.471704 -2006981.461327 
L 482.952137 -1904345.606683 
L 480.432571 -1848911.88551 
z
" style="fill:#ffcccc;fill-opacity:0.2;stroke:#ffcccc;stroke-opacity:0.2;"/>
    <path clip-path="url(#pe4b1b8d34d)" d="M 533.343468 -1636500.225 
L 533.343468 -1450540.588958 
L 535.863034 -1453090.236362 
L 535.863034 -1674421.974688 
L 535.863034 -1674421.974688 
L 533.343468 -1636500.225 
z
" style="fill:#ffcccc;fill-opacity:0.2;stroke:#ffcccc;stroke-opacity:0.2;"/>
    <path clip-path="url(#pe4b1b8d34d)" d="M 548.460867 -1580053.286605 
L 548.460867 -1505491.191166 
L 556.019567 -1492893.626906 
L 591.293498 -1451445.568438 
L 593.813064 -1427472.349997 
L 593.813064 -1517440.275147 
L 593.813064 -1517440.275147 
L 591.293498 -1555802.381559 
L 556.019567 -1502437.117828 
L 548.460867 -1580053.286605 
z
" style="fill:#ffcccc;fill-opacity:0.2;stroke:#ffcccc;stroke-opacity:0.2;"/>
    <path clip-path="url(#pe4b1b8d34d)" d="M 613.969597 -1735116.938489 
L 613.969597 -1548051.935897 
L 613.969597 -1735116.938489 
L 613.969597 -1735116.938489 
z
" style="fill:#ffcccc;fill-opacity:0.2;stroke:#ffcccc;stroke-opacity:0.2;"/>
    <path clip-path="url(#pe4b1b8d34d)" d="M 629.086996 -1564415.238845 
L 629.086996 -1543293.343969 
L 629.086996 -1564415.238845 
L 629.086996 -1564415.238845 
z
" style="fill:#ffcccc;fill-opacity:0.2;stroke:#ffcccc;stroke-opacity:0.2;"/>
    <path clip-path="url(#pe4b1b8d34d)" d="M 646.723961 -1484342.114519 
L 646.723961 -1357763.458765 
L 646.723961 -1484342.114519 
L 646.723961 -1484342.114519 
z
" style="fill:#ffcccc;fill-opacity:0.2;stroke:#ffcccc;stroke-opacity:0.2;"/>
    <path clip-path="url(#pe4b1b8d34d)" d="M 659.321794 -1795068.723089 
L 659.321794 -1567530.37342 
L 661.841361 -1655032.949139 
L 664.360927 -1468168.629082 
L 666.880494 -1538670.895729 
L 669.40006 -1507090.570421 
L 671.919627 -1527294.149725 
L 674.439193 -1629774.680097 
L 674.439193 -1680953.719117 
L 674.439193 -1680953.719117 
L 671.919627 -1635237.322482 
L 669.40006 -1665608.479295 
L 666.880494 -1647905.500224 
L 664.360927 -1656632.187732 
L 661.841361 -1788356.483372 
L 659.321794 -1795068.723089 
z
" style="fill:#ffcccc;fill-opacity:0.2;stroke:#ffcccc;stroke-opacity:0.2;"/>
    <path clip-path="url(#pe4b1b8d34d)" d="M 684.517459 -1724959.156085 
L 684.517459 -1661690.811572 
L 687.037026 -1412576.951808 
L 687.037026 -1644664.115331 
L 687.037026 -1644664.115331 
L 684.517459 -1724959.156085 
z
" style="fill:#ffcccc;fill-opacity:0.2;stroke:#ffcccc;stroke-opacity:0.2;"/>
    <path clip-path="url(#pe4b1b8d34d)" d="M 692.076159 -1726275.15236 
L 692.076159 -1377135.483167 
L 692.076159 -1726275.15236 
L 692.076159 -1726275.15236 
z
" style="fill:#ffcccc;fill-opacity:0.2;stroke:#ffcccc;stroke-opacity:0.2;"/>
    <path clip-path="url(#pe4b1b8d34d)" d="M 704.673992 -1717169.421811 
L 704.673992 -1650584.837224 
L 707.193558 -1572739.832281 
L 709.713125 -1570896.422172 
L 709.713125 -1795213.997398 
L 709.713125 -1795213.997398 
L 707.193558 -1663578.698612 
L 704.673992 -1717169.421811 
z
" style="fill:#ffcccc;fill-opacity:0.2;stroke:#ffcccc;stroke-opacity:0.2;"/>
    <path clip-path="url(#pe4b1b8d34d)" d="M 717.271824 -1786906.114871 
L 717.271824 -1670091.246876 
L 719.791391 -1626916.705291 
L 719.791391 -1687830.510948 
L 719.791391 -1687830.510948 
L 717.271824 -1786906.114871 
z
" style="fill:#ffcccc;fill-opacity:0.2;stroke:#ffcccc;stroke-opacity:0.2;"/>
    <path clip-path="url(#pe4b1b8d34d)" d="M 813.015352 -1865078.044714 
L 813.015352 -1654412.88031 
L 815.534919 -1560134.609436 
L 818.054485 -1559291.035051 
L 825.613185 -1523066.424502 
L 828.132751 -1648467.179484 
L 828.132751 -2046989.153433 
L 828.132751 -2046989.153433 
L 825.613185 -1738127.928438 
L 818.054485 -1849638.435333 
L 815.534919 -1846039.099051 
L 813.015352 -1865078.044714 
z
" style="fill:#ffcccc;fill-opacity:0.2;stroke:#ffcccc;stroke-opacity:0.2;"/>
    <path clip-path="url(#pe4b1b8d34d)" d="M 833.171884 -1703184.872984 
L 833.171884 -1604237.762954 
L 835.691451 -1613908.098418 
L 835.691451 -1693415.960328 
L 835.691451 -1693415.960328 
L 833.171884 -1703184.872984 
z
" style="fill:#ffcccc;fill-opacity:0.2;stroke:#ffcccc;stroke-opacity:0.2;"/>
    <path clip-path="url(#pe4b1b8d34d)" d="M 860.887116 -1790766.874699 
L 860.887116 -1512966.484379 
L 863.406683 -1710258.293579 
L 865.926249 -1660006.458313 
L 868.445816 -1662471.659285 
L 870.965382 -1588863.461694 
L 878.524082 -1466857.285877 
L 878.524082 -1537471.103216 
L 878.524082 -1537471.103216 
L 870.965382 -1678090.628469 
L 868.445816 -2042445.634982 
L 865.926249 -1740865.780903 
L 863.406683 -1797522.142483 
L 860.887116 -1790766.874699 
z
" style="fill:#ffcccc;fill-opacity:0.2;stroke:#ffcccc;stroke-opacity:0.2;"/>
    <path clip-path="url(#pe4b1b8d34d)" d="M 891.121915 -1757066.640679 
L 891.121915 -1684516.681667 
L 893.641481 -1695574.612208 
L 893.641481 -1786773.912216 
L 893.641481 -1786773.912216 
L 891.121915 -1757066.640679 
z
" style="fill:#ffcccc;fill-opacity:0.2;stroke:#ffcccc;stroke-opacity:0.2;"/>
    <path clip-path="url(#pe4b1b8d34d)" d="M 901.200181 -1814034.631089 
L 901.200181 -1429695.76001 
L 903.719747 -1499933.185179 
L 916.31758 -1501021.679856 
L 916.31758 -1724833.35275 
L 916.31758 -1724833.35275 
L 903.719747 -1733150.611041 
L 901.200181 -1814034.631089 
z
" style="fill:#ffcccc;fill-opacity:0.2;stroke:#ffcccc;stroke-opacity:0.2;"/>
    <path clip-path="url(#pe4b1b8d34d)" d="M 921.356713 -1709128.596838 
L 921.356713 -1623400.371919 
L 921.356713 -1709128.596838 
L 921.356713 -1709128.596838 
z
" style="fill:#ffcccc;fill-opacity:0.2;stroke:#ffcccc;stroke-opacity:0.2;"/>
    <path clip-path="url(#pe4b1b8d34d)" d="M 926.395846 -2003443.423189 
L 926.395846 -1762583.482133 
L 928.915412 -1647645.549498 
L 928.915412 -1887935.800254 
L 928.915412 -1887935.800254 
L 926.395846 -2003443.423189 
z
" style="fill:#ffcccc;fill-opacity:0.2;stroke:#ffcccc;stroke-opacity:0.2;"/>
    <path clip-path="url(#pe4b1b8d34d)" d="M 933.954545 -2007492.31813 
L 933.954545 -1783061.188882 
L 933.954545 -2007492.31813 
L 933.954545 -2007492.31813 
z
" style="fill:#ffcccc;fill-opacity:0.2;stroke:#ffcccc;stroke-opacity:0.2;"/>
   </g>
   <g id="matplotlib.axis_3">
    <g id="ytick_10">
     <g id="line2d_27">
      <defs>
       <path d="M 0 0 
L 3.5 0 
" id="m6bc69748e1" style="stroke:#000000;stroke-width:0.8;"/>
      </defs>
      <g>
       <use style="stroke:#000000;stroke-width:0.8;" x="972" xlink:href="#m6bc69748e1" y="347.4225"/>
      </g>
     </g>
     <g id="text_26">
      <!-- 160 -->
      <g transform="translate(979 351.221719)scale(0.1 -0.1)">
       <use xlink:href="#DejaVuSans-49"/>
       <use x="63.623047" xlink:href="#DejaVuSans-54"/>
       <use x="127.246094" xlink:href="#DejaVuSans-48"/>
      </g>
     </g>
    </g>
    <g id="ytick_11">
     <g id="line2d_28">
      <g>
       <use style="stroke:#000000;stroke-width:0.8;" x="972" xlink:href="#m6bc69748e1" y="306.6525"/>
      </g>
     </g>
     <g id="text_27">
      <!-- 180 -->
      <g transform="translate(979 310.451719)scale(0.1 -0.1)">
       <use xlink:href="#DejaVuSans-49"/>
       <use x="63.623047" xlink:href="#DejaVuSans-56"/>
       <use x="127.246094" xlink:href="#DejaVuSans-48"/>
      </g>
     </g>
    </g>
    <g id="ytick_12">
     <g id="line2d_29">
      <g>
       <use style="stroke:#000000;stroke-width:0.8;" x="972" xlink:href="#m6bc69748e1" y="265.8825"/>
      </g>
     </g>
     <g id="text_28">
      <!-- 200 -->
      <g transform="translate(979 269.681719)scale(0.1 -0.1)">
       <use xlink:href="#DejaVuSans-50"/>
       <use x="63.623047" xlink:href="#DejaVuSans-48"/>
       <use x="127.246094" xlink:href="#DejaVuSans-48"/>
      </g>
     </g>
    </g>
    <g id="ytick_13">
     <g id="line2d_30">
      <g>
       <use style="stroke:#000000;stroke-width:0.8;" x="972" xlink:href="#m6bc69748e1" y="225.1125"/>
      </g>
     </g>
     <g id="text_29">
      <!-- 220 -->
      <g transform="translate(979 228.911719)scale(0.1 -0.1)">
       <use xlink:href="#DejaVuSans-50"/>
       <use x="63.623047" xlink:href="#DejaVuSans-50"/>
       <use x="127.246094" xlink:href="#DejaVuSans-48"/>
      </g>
     </g>
    </g>
    <g id="ytick_14">
     <g id="line2d_31">
      <g>
       <use style="stroke:#000000;stroke-width:0.8;" x="972" xlink:href="#m6bc69748e1" y="184.3425"/>
      </g>
     </g>
     <g id="text_30">
      <!-- 240 -->
      <g transform="translate(979 188.141719)scale(0.1 -0.1)">
       <use xlink:href="#DejaVuSans-50"/>
       <use x="63.623047" xlink:href="#DejaVuSans-52"/>
       <use x="127.246094" xlink:href="#DejaVuSans-48"/>
      </g>
     </g>
    </g>
    <g id="ytick_15">
     <g id="line2d_32">
      <g>
       <use style="stroke:#000000;stroke-width:0.8;" x="972" xlink:href="#m6bc69748e1" y="143.5725"/>
      </g>
     </g>
     <g id="text_31">
      <!-- 260 -->
      <g transform="translate(979 147.371719)scale(0.1 -0.1)">
       <use xlink:href="#DejaVuSans-50"/>
       <use x="63.623047" xlink:href="#DejaVuSans-54"/>
       <use x="127.246094" xlink:href="#DejaVuSans-48"/>
      </g>
     </g>
    </g>
    <g id="ytick_16">
     <g id="line2d_33">
      <g>
       <use style="stroke:#000000;stroke-width:0.8;" x="972" xlink:href="#m6bc69748e1" y="102.8025"/>
      </g>
     </g>
     <g id="text_32">
      <!-- 280 -->
      <g transform="translate(979 106.601719)scale(0.1 -0.1)">
       <use xlink:href="#DejaVuSans-50"/>
       <use x="63.623047" xlink:href="#DejaVuSans-56"/>
       <use x="127.246094" xlink:href="#DejaVuSans-48"/>
      </g>
     </g>
    </g>
    <g id="ytick_17">
     <g id="line2d_34">
      <g>
       <use style="stroke:#000000;stroke-width:0.8;" x="972" xlink:href="#m6bc69748e1" y="62.0325"/>
      </g>
     </g>
     <g id="text_33">
      <!-- 300 -->
      <g transform="translate(979 65.831719)scale(0.1 -0.1)">
       <use xlink:href="#DejaVuSans-51"/>
       <use x="63.623047" xlink:href="#DejaVuSans-48"/>
       <use x="127.246094" xlink:href="#DejaVuSans-48"/>
      </g>
     </g>
    </g>
    <g id="text_34">
     <!-- partial fit -->
     <defs>
      <path d="M 18.109375 8.203125 
L 18.109375 -20.796875 
L 9.078125 -20.796875 
L 9.078125 54.6875 
L 18.109375 54.6875 
L 18.109375 46.390625 
Q 20.953125 51.265625 25.265625 53.625 
Q 29.59375 56 35.59375 56 
Q 45.5625 56 51.78125 48.09375 
Q 58.015625 40.1875 58.015625 27.296875 
Q 58.015625 14.40625 51.78125 6.484375 
Q 45.5625 -1.421875 35.59375 -1.421875 
Q 29.59375 -1.421875 25.265625 0.953125 
Q 20.953125 3.328125 18.109375 8.203125 
z
M 48.6875 27.296875 
Q 48.6875 37.203125 44.609375 42.84375 
Q 40.53125 48.484375 33.40625 48.484375 
Q 26.265625 48.484375 22.1875 42.84375 
Q 18.109375 37.203125 18.109375 27.296875 
Q 18.109375 17.390625 22.1875 11.75 
Q 26.265625 6.109375 33.40625 6.109375 
Q 40.53125 6.109375 44.609375 11.75 
Q 48.6875 17.390625 48.6875 27.296875 
z
" id="DejaVuSans-112"/>
      <path d="M 41.109375 46.296875 
Q 39.59375 47.171875 37.8125 47.578125 
Q 36.03125 48 33.890625 48 
Q 26.265625 48 22.1875 43.046875 
Q 18.109375 38.09375 18.109375 28.8125 
L 18.109375 0 
L 9.078125 0 
L 9.078125 54.6875 
L 18.109375 54.6875 
L 18.109375 46.1875 
Q 20.953125 51.171875 25.484375 53.578125 
Q 30.03125 56 36.53125 56 
Q 37.453125 56 38.578125 55.875 
Q 39.703125 55.765625 41.0625 55.515625 
z
" id="DejaVuSans-114"/>
     </defs>
     <g transform="translate(1009.685938 237.714531)rotate(-90)scale(0.1 -0.1)">
      <use xlink:href="#DejaVuSans-112"/>
      <use x="63.476562" xlink:href="#DejaVuSans-97"/>
      <use x="124.755859" xlink:href="#DejaVuSans-114"/>
      <use x="165.869141" xlink:href="#DejaVuSans-116"/>
      <use x="205.078125" xlink:href="#DejaVuSans-105"/>
      <use x="232.861328" xlink:href="#DejaVuSans-97"/>
      <use x="294.140625" xlink:href="#DejaVuSans-108"/>
      <use x="321.923828" xlink:href="#DejaVuSans-32"/>
      <use x="353.710938" xlink:href="#DejaVuSans-102"/>
      <use x="388.916016" xlink:href="#DejaVuSans-105"/>
      <use x="416.699219" xlink:href="#DejaVuSans-116"/>
     </g>
    </g>
   </g>
   <g id="line2d_35">
    <path clip-path="url(#pe4b1b8d34d)" d="M 0 0 
" style="fill:none;stroke:#ffcccc;stroke-linecap:square;stroke-width:1.5;"/>
   </g>
   <g id="patch_8">
    <path d="M 135 378 
L 135 51.84 
" style="fill:none;stroke:#000000;stroke-linecap:square;stroke-linejoin:miter;stroke-width:0.8;"/>
   </g>
   <g id="patch_9">
    <path d="M 972 378 
L 972 51.84 
" style="fill:none;stroke:#000000;stroke-linecap:square;stroke-linejoin:miter;stroke-width:0.8;"/>
   </g>
   <g id="patch_10">
    <path d="M 135 378 
L 972 378 
" style="fill:none;stroke:#000000;stroke-linecap:square;stroke-linejoin:miter;stroke-width:0.8;"/>
   </g>
   <g id="patch_11">
    <path d="M 135 51.84 
L 972 51.84 
" style="fill:none;stroke:#000000;stroke-linecap:square;stroke-linejoin:miter;stroke-width:0.8;"/>
   </g>
   <g id="legend_2">
    <g id="patch_12">
     <path d="M 887.410938 74.518125 
L 965 74.518125 
Q 967 74.518125 967 72.518125 
L 967 58.84 
Q 967 56.84 965 56.84 
L 887.410938 56.84 
Q 885.410938 56.84 885.410938 58.84 
L 885.410938 72.518125 
Q 885.410938 74.518125 887.410938 74.518125 
z
" style="fill:#ffffff;opacity:0.8;stroke:#cccccc;stroke-linejoin:miter;"/>
    </g>
    <g id="line2d_36">
     <path d="M 889.410938 64.938438 
L 909.410938 64.938438 
" style="fill:none;stroke:#ffcccc;stroke-linecap:square;stroke-width:1.5;"/>
    </g>
    <g id="line2d_37"/>
    <g id="text_35">
     <!-- partial fit -->
     <g transform="translate(917.410938 68.438438)scale(0.1 -0.1)">
      <use xlink:href="#DejaVuSans-112"/>
      <use x="63.476562" xlink:href="#DejaVuSans-97"/>
      <use x="124.755859" xlink:href="#DejaVuSans-114"/>
      <use x="165.869141" xlink:href="#DejaVuSans-116"/>
      <use x="205.078125" xlink:href="#DejaVuSans-105"/>
      <use x="232.861328" xlink:href="#DejaVuSans-97"/>
      <use x="294.140625" xlink:href="#DejaVuSans-108"/>
      <use x="321.923828" xlink:href="#DejaVuSans-32"/>
      <use x="353.710938" xlink:href="#DejaVuSans-102"/>
      <use x="388.916016" xlink:href="#DejaVuSans-105"/>
      <use x="416.699219" xlink:href="#DejaVuSans-116"/>
     </g>
    </g>
   </g>
  </g>
 </g>
 <defs>
  <clipPath id="pe4b1b8d34d">
   <rect height="326.16" width="837" x="135" y="51.84"/>
  </clipPath>
 </defs>
</svg>
